Patient4_TMGait_0pt2_01_right_01_GRF.mot
version=1
nRows=32
nColumns=19
inDegrees=no
endheader
time	F1x	F1y	F1z	M1x	M1y	M1z	F2x	F2y	F2z	M2x	M2y	M2z	EC1x	EC1y	EC1z	EC2x	EC2y	EC2z
0.01	-1.2521	682.7446	32.6993	-253.1422	-34.945	766.113	8.4144	124.6886	-12.866	45.6063	11.5642	128.6854	-0.0592	0.0182	-0.0073	-0.0462	0.0165	0.9585
0.032571	-1.1487	701.2601	34.4299	-259.4962	-36.4567	784.7827	5.0095	108.1157	-11.3351	39.5905	10.894	111.6616	-0.0592	0.0182	-0.0073	-0.0462	0.0165	0.9585
0.055143	-0.95627	722.4178	36.5268	-266.7481	-38.2895	805.908	1.8032	89.684	-9.577	32.8717	9.9427	92.7204	-0.0592	0.0182	-0.0073	-0.0462	0.0165	0.9585
0.077714	-0.63507	744.5485	38.827	-274.3093	-40.2683	827.6952	-0.86811	70.7587	-7.7	25.9552	8.7216	73.2649	-0.0592	0.0182	-0.0073	-0.0462	0.0165	0.9585
0.10029	-0.13102	765.7223	41.1282	-281.5025	-42.166	848.0754	-2.7466	52.6636	-5.8256	19.3332	7.2721	54.6551	-0.0592	0.0182	-0.0073	-0.0462	0.0165	0.9585
0.12286	0.60898	784.071	43.2277	-287.6823	-43.7552	865.0471	-3.6854	36.518	-4.0789	13.4207	5.6706	38.0468	-0.0592	0.0182	-0.0073	-0.0462	0.0165	0.9585
0.14543	1.6293	798.0876	44.9388	-292.3462	-44.8252	877.0033	-3.7142	23.1449	-2.5777	8.522	4.0433	24.2902	-0.0592	0.0182	-0.0073	-0.0462	0.0165	0.9585
0.168	2.974	806.8632	46.1014	-295.2097	-45.1914	882.982	-3.1181	12.9796	-1.4027	4.7973	2.5664	13.829	-0.0592	0.0182	-0.0073	-0.0462	0.0165	0.9585
0.19057	4.6775	810.2166	46.6297	-296.2385	-44.7504	882.8058	-2.2552	5.9338	-0.5685	2.2144	1.3718	6.5747	-0.0592	0.0182	-0.0073	-0.0462	0.0165	0.9585
0.21314	6.7441	808.7144	46.5366	-295.6488	-43.5161	877.1118	-1.361	1.4988	-0.032192	0.58743	0.48853	1.9986	-0.0592	0.0182	-0.0073	-0.0462	0.0165	0.9585
0.23571	9.1477	803.4955	45.9252	-293.8444	-41.6096	867.1655	-0.56687	-1.0078	0.27404	-0.33311	-0.117	-0.61564	-0.0592	0.0182	-0.0073	-0.0462	0.0165	0.9585
0.25829	11.8452	795.9871	44.9572	-291.3161	-39.2202	854.5481	0.067513	-2.2713	0.42211	-0.79901	-0.50313	-1.9823	-0.0592	0.0182	-0.0073	-0.0462	0.0165	0.9585
0.28086	14.7844	787.6159	43.8097	-288.5466	-36.5592	840.8459	0.52546	-2.8831	0.47683	-1.0281	-0.72989	-2.7125	-0.0592	0.0182	-0.0073	-0.0462	0.0165	0.9585
0.30343	17.9045	779.5878	42.653	-285.9385	-33.8315	827.4169	0.8124	-3.2914	0.48772	-1.1853	-0.84912	-3.2636	-0.0592	0.0182	-0.0073	-0.0462	0.0165	0.9585
0.326	21.141	772.7703	41.6334	-283.7763	-31.2136	815.2517	0.94006	-3.7769	0.48445	-1.3737	-0.89697	-3.917	-0.0592	0.0182	-0.0073	-0.0462	0.0165	0.9585
0.34857	24.4365	767.6441	40.8609	-282.211	-28.8387	804.912	0.91726	-4.4296	0.4778	-1.6278	-0.88516	-4.7489	-0.0592	0.0182	-0.0073	-0.0462	0.0165	0.9585
0.37114	27.7451	764.3238	40.3964	-281.2691	-26.7854	796.5538	0.74142	-5.1351	0.45897	-1.905	-0.79802	-5.6083	-0.0592	0.0182	-0.0073	-0.0462	0.0165	0.9585
0.39371	31.0284	762.595	40.2597	-280.8649	-25.088	789.9861	0.40064	-5.5527	0.40052	-2.0778	-0.59364	-6.0892	-0.0592	0.0182	-0.0073	-0.0462	0.0165	0.9585
0.41629	34.2417	761.9119	40.4453	-280.7942	-23.7594	784.6818	-0.1211	-5.0876	0.25658	-1.9226	-0.21038	-5.499	-0.0592	0.0182	-0.0073	-0.0462	0.0165	0.9585
0.43886	37.3295	761.3728	40.9159	-280.7225	-22.7885	779.7516	-0.83575	-2.8777	-0.033547	-1.1161	0.42965	-2.8444	-0.0592	0.0182	-0.0073	-0.0462	0.0165	0.9585
0.46143	40.2	759.6772	41.5993	-280.1661	-22.1481	773.9097	-1.7313	2.18	-0.54176	0.75801	1.4099	3.1374	-0.0592	0.0182	-0.0073	-0.0462	0.0165	0.9585
0.484	42.7176	755.1654	42.3861	-278.5088	-21.7944	765.5256	-2.7415	11.3397	-1.3425	4.177	2.7977	13.8738	-0.0592	0.0182	-0.0073	-0.0462	0.0165	0.9585
0.50657	44.729	746.0429	43.1346	-275.0855	-21.6579	752.8573	-3.7184	25.8228	-2.4945	9.6104	4.6076	30.738	-0.0592	0.0182	-0.0073	-0.0462	0.0165	0.9585
0.52914	46.0834	730.7149	43.6909	-269.3054	-21.6514	734.3814	-4.4821	46.5539	-4.0096	17.4226	6.785	54.7311	-0.0592	0.0182	-0.0073	-0.0462	0.0165	0.9585
0.55171	46.6427	708.1623	43.899	-260.7918	-21.6787	709.1631	-5.1091	73.9868	-5.8658	27.7993	9.3256	86.2967	-0.0592	0.0182	-0.0073	-0.0462	0.0165	0.9585
0.57429	46.2914	678.1986	43.6227	-249.4792	-21.6511	677.1073	-6.0249	108.0417	-8.1552	40.7014	12.4765	125.3132	-0.0592	0.0182	-0.0073	-0.0462	0.0165	0.9585
0.59686	44.9387	641.4672	42.7873	-235.6093	-21.5257	638.9442	-7.5029	147.8134	-10.9543	55.7618	16.4113	170.7492	-0.0592	0.0182	-0.0073	-0.0462	0.0165	0.9585
0.61943	42.5538	599.4387	41.3822	-219.7347	-21.2952	596.2021	-9.551	191.7377	-14.2433	72.3612	21.1015	220.8299	-0.0592	0.0182	-0.0073	-0.0462	0.0165	0.9585
0.642	39.1959	554.2015	39.4388	-202.6479	-20.9587	550.9739	-12.0192	238.0586	-17.8672	89.8183	26.3163	273.5776	-0.0592	0.0182	-0.0073	-0.0462	0.0165	0.9585
0.66457	35.0543	507.9829	37.0292	-185.1976	-20.5063	505.4077	-14.6988	285.0254	-21.5626	107.4694	31.6832	327.0326	-0.0592	0.0182	-0.0073	-0.0462	0.0165	0.9585
0.68714	30.469	462.7336	34.2868	-168.1253	-19.9285	461.2735	-17.3766	330.9497	-25.0576	124.6817	36.8168	379.2935	-0.0592	0.0182	-0.0073	-0.0462	0.0165	0.9585
0.70971	25.8669	419.9241	31.3931	-151.9926	-19.2275	419.8006	-19.8572	374.3508	-28.1395	140.9019	41.401	428.6784	-0.0592	0.0182	-0.0073	-0.0462	0.0165	0.9585
